# Blender v2.78 (sub 0) OBJ File: ''
# www.blender.org
mtllib tile1.mtl
o Cube
v 1.000000 -0.100000 -1.000000
v 1.000000 -0.100000 1.000000
v -1.000000 -0.100000 1.000000
v -1.000000 -0.100000 -1.000000
v 0.805332 0.100000 -0.805331
v 1.000000 -0.094668 -1.000000
v 0.902666 0.073919 -0.902665
v 0.973920 0.002666 -0.973919
v 0.805331 0.100000 0.805332
v 1.000000 -0.094668 1.000000
v 0.902665 0.073919 0.902666
v 0.973919 0.002666 0.973920
v -0.805332 0.100000 0.805331
v -1.000000 -0.094668 1.000000
v -0.902666 0.073919 0.902666
v -0.973920 0.002666 0.973919
v -0.805332 0.100000 -0.805332
v -1.000000 -0.094668 -1.000000
v -0.902666 0.073919 -0.902666
v -0.973919 0.002666 -0.973920
vn 0.0000 -1.0000 0.0000
vn -0.0000 0.0000 1.0000
vn 0.0000 1.0000 0.0000
vn -1.0000 0.0000 -0.0000
vn 1.0000 0.0000 0.0000
vn 0.2588 0.9659 0.0000
vn 0.7071 0.7071 0.0000
vn 0.9659 0.2588 0.0000
vn 0.0000 0.2588 -0.9659
vn 0.0000 0.7071 -0.7071
vn 0.0000 0.9659 -0.2588
vn -0.0000 0.9659 0.2588
vn -0.0000 0.7071 0.7071
vn -0.0000 0.2588 0.9659
vn -0.2588 0.9659 -0.0000
vn -0.7071 0.7071 -0.0000
vn -0.9659 0.2588 -0.0000
vn 0.0000 0.0000 -1.0000
usemtl Material
s off
f 1//1 2//1 3//1 4//1
f 2//2 10//2 14//2 3//2
f 5//3 17//3 13//3 9//3
f 3//4 14//4 18//4 4//4
f 1//5 6//5 10//5 2//5
f 5//6 9//6 11//6 7//6
f 7//7 11//7 12//7 8//7
f 8//8 12//8 10//8 6//8
f 6//9 18//9 20//9 8//9
f 8//10 20//10 19//10 7//10
f 7//11 19//11 17//11 5//11
f 9//12 13//12 15//12 11//12
f 11//13 15//13 16//13 12//13
f 12//14 16//14 14//14 10//14
f 13//15 17//15 19//15 15//15
f 15//16 19//16 20//16 16//16
f 16//17 20//17 18//17 14//17
f 6//18 1//18 4//18 18//18
